<svg width="1440" height="703" viewBox="0 0 1440 703" fill="none" xmlns="http://www.w3.org/2000/svg">
<path opacity="0.2" fill-rule="evenodd" clip-rule="evenodd" d="M1433.54 717.073C1398.83 728.654 1338.05 740.411 1268.51 738.078C1198.96 735.744 1120.6 719.317 1050.75 674.497C1028.9 660.476 1014.69 645.53 1006.05 629.983C997.418 614.434 994.378 598.314 994.825 581.974C995.593 553.869 1006.69 525.064 1017.36 497.358L1017.36 497.344C1019.08 492.881 1020.79 488.446 1022.44 484.047C1028.41 468.172 1033.64 452.761 1036.09 438.126C1038.53 423.495 1038.17 409.672 1032.98 396.958C1022.6 371.547 992.78 350.321 926.475 336.1C826.687 314.699 752.602 331.751 689.835 346.197C669.224 350.941 649.834 355.404 631.156 358.132C593.378 363.65 558.533 362.052 522.513 341.216C486.517 320.393 449.407 280.391 407.002 209.243C364.653 138.19 323.375 111.933 282.624 110.374C241.813 108.813 201.353 132.002 160.595 160.318C150.749 167.158 140.887 174.297 131.002 181.453C100.021 203.879 68.8141 226.469 37.1922 240.528C16.3212 249.808 -4.76643 255.39 -26.1318 254.761C-47.5045 254.131 -69.1229 247.286 -91.05 231.761L-90.4721 230.944C-68.695 246.363 -47.2653 253.137 -26.1024 253.761C-4.93224 254.385 16.0032 248.855 36.786 239.615C68.303 225.602 99.387 203.102 130.348 180.69C140.249 173.523 150.138 166.365 160.024 159.497C200.768 131.19 241.481 107.8 282.662 109.375C323.902 110.952 365.434 137.546 407.861 208.731C450.231 279.821 487.234 319.653 523.014 340.35C558.77 361.034 593.363 362.642 631.011 357.143C649.585 354.43 668.909 349.982 689.475 345.247L689.476 345.247C752.272 330.792 826.657 313.67 926.685 335.123C993.052 349.356 1023.33 370.679 1033.91 396.58C1039.19 409.523 1039.54 423.548 1037.07 438.291C1034.61 453.029 1029.34 468.517 1023.38 484.399C1021.72 488.807 1020.01 493.246 1018.3 497.708L1018.28 497.743C1007.61 525.463 996.587 554.083 995.824 582.001C995.382 598.192 998.393 614.129 1006.93 629.498C1015.47 644.869 1029.55 659.702 1051.29 673.655C1120.95 718.352 1199.12 734.749 1268.54 737.078C1337.97 739.408 1398.62 727.668 1433.23 716.125L1433.54 717.073ZM1295.54 701.88C1365.08 704.214 1425.85 692.457 1460.57 680.876L1460.26 679.928C1425.65 691.471 1365 703.211 1295.57 700.881C1226.14 698.551 1147.98 682.154 1078.32 637.458C1056.58 623.505 1042.5 608.672 1033.96 593.3C1025.42 577.932 1022.41 561.995 1022.85 545.804C1023.62 517.886 1034.64 489.266 1045.31 461.545L1045.33 461.51C1047.04 457.049 1048.75 452.61 1050.41 448.202C1056.37 432.32 1061.64 416.832 1064.1 402.094C1066.56 387.351 1066.22 373.326 1060.94 360.383C1050.35 334.481 1020.08 313.159 953.714 298.926C853.686 277.473 779.302 294.595 716.505 309.05L716.505 309.05C695.938 313.784 676.615 318.232 658.041 320.945C620.393 326.444 585.8 324.837 550.043 304.153C514.263 283.456 477.26 243.624 434.89 172.534C392.463 101.349 350.932 74.7552 309.691 73.1778C268.51 71.6026 227.798 94.9931 187.054 123.3C177.167 130.168 167.279 137.326 157.377 144.493C126.416 166.905 95.3324 189.405 63.8153 203.417C43.0325 212.658 22.0971 218.188 0.92696 217.564C-20.236 216.94 -41.6657 210.166 -63.4428 194.747L-64.0206 195.563C-42.0936 211.088 -20.4751 217.934 0.897507 218.563C22.2629 219.193 43.3505 213.611 64.2216 204.331C95.8435 190.272 127.05 167.682 158.031 145.256C167.917 138.1 177.779 130.961 187.624 124.121C228.382 95.8046 268.843 72.6161 309.653 74.177C350.404 75.7357 391.682 101.993 434.031 173.046C476.436 244.194 513.546 284.196 549.543 305.018C585.562 325.855 620.408 327.453 658.185 321.935C676.864 319.207 696.254 314.744 716.864 310C779.631 295.554 853.717 278.502 953.505 299.903C1019.81 314.124 1049.63 335.349 1060.01 360.761C1065.2 373.475 1065.56 387.298 1063.12 401.929C1060.67 416.564 1055.44 431.975 1049.47 447.85C1047.82 452.249 1046.11 456.684 1044.39 461.147L1044.39 461.161C1033.72 488.867 1022.62 517.672 1021.85 545.777C1021.41 562.116 1024.45 578.236 1033.08 593.786C1041.72 609.333 1055.93 624.279 1077.78 638.3C1147.63 683.12 1225.99 699.547 1295.54 701.88ZM1487.6 644.68C1452.88 656.261 1392.11 668.018 1322.57 665.684C1253.02 663.351 1174.66 646.924 1104.81 602.104C1082.96 588.083 1068.75 573.137 1060.11 557.59C1051.48 542.04 1048.44 525.92 1048.88 509.581C1049.65 481.476 1060.75 452.671 1071.42 424.965L1071.42 424.952L1071.43 424.94L1071.43 424.925C1073.15 420.47 1074.85 416.044 1076.5 411.654C1082.46 395.779 1087.7 380.368 1090.15 365.733C1092.59 351.102 1092.23 337.279 1087.04 324.565C1076.66 299.153 1046.84 277.928 980.534 263.707C880.746 242.306 806.661 259.357 743.894 273.804C723.283 278.548 703.893 283.011 685.215 285.739C647.437 291.257 612.592 289.658 576.572 268.822C540.576 248 503.466 207.998 461.061 136.85C418.712 65.7967 377.434 39.5396 336.683 37.9809C295.872 36.4199 255.412 59.6085 214.654 87.9248C204.81 94.7632 194.951 101.901 185.067 109.055L185.062 109.059L185.061 109.059C154.08 131.486 122.873 154.076 91.2511 168.135C70.38 177.414 49.2924 182.997 27.927 182.367C6.55437 181.737 -15.0641 174.892 -36.9911 159.367L-36.4133 158.551C-14.6362 173.97 6.79349 180.744 27.9564 181.368C49.1266 181.991 70.062 176.461 90.8448 167.221C122.362 153.209 153.446 130.708 184.407 108.297L184.407 108.297C194.308 101.13 204.197 93.9718 214.083 87.1035C254.827 58.797 295.54 35.4065 336.721 36.9817C377.961 38.559 419.492 65.1532 461.919 136.338C504.29 207.428 541.293 247.259 577.073 267.957C612.829 288.64 647.422 290.248 685.07 284.749C703.643 282.037 722.965 277.589 743.53 272.855L743.531 272.855L743.534 272.854L743.535 272.854C806.331 258.399 880.716 241.277 980.744 262.729C1047.11 276.963 1077.38 298.285 1087.97 324.187C1093.25 337.13 1093.59 351.155 1091.13 365.897C1088.67 380.636 1083.4 396.124 1077.44 412.006C1075.78 416.414 1074.07 420.853 1072.36 425.314L1072.34 425.349C1061.67 453.07 1050.65 481.69 1049.88 509.608C1049.44 525.798 1052.45 541.736 1060.99 557.104C1069.53 572.476 1083.61 587.309 1105.35 601.262C1175.01 645.958 1253.17 662.355 1322.6 664.685C1392.03 667.015 1452.68 655.275 1487.29 643.731L1487.6 644.68ZM1514.63 608.483C1479.91 620.064 1419.14 631.821 1349.6 629.487C1280.05 627.153 1201.69 610.727 1131.84 565.906C1109.99 551.885 1095.78 536.939 1087.14 521.393C1078.51 505.843 1075.47 489.723 1075.91 473.383C1076.68 445.278 1087.78 416.474 1098.45 388.768L1098.45 388.754L1098.46 388.743L1098.46 388.727C1100.18 384.273 1101.88 379.847 1103.53 375.457C1109.49 359.581 1114.73 344.171 1117.18 329.536C1119.62 314.905 1119.26 301.082 1114.07 288.368C1103.69 262.956 1073.87 241.73 1007.56 227.51C907.776 206.109 833.69 223.16 770.923 237.607C750.313 242.351 730.923 246.813 712.244 249.542C674.467 255.06 639.621 253.461 603.602 232.625C567.606 211.803 530.495 171.801 488.09 100.653C445.741 29.5995 404.463 3.34235 363.712 1.78364C322.902 0.222684 282.441 23.4112 241.683 51.7275C231.838 58.5675 221.976 65.7065 212.091 72.8622C181.109 95.2888 149.903 117.879 118.281 131.938C97.4096 141.217 76.322 146.8 54.9566 146.17C33.5839 145.54 11.9655 138.695 -9.96157 123.17L-9.38372 122.354C12.3934 137.773 33.8231 144.547 54.986 145.17C76.1562 145.794 97.0916 140.264 117.874 131.024C149.391 117.012 180.476 94.5111 211.437 72.0998C221.338 64.9326 231.226 57.7746 241.113 50.9063C281.857 22.5998 322.569 -0.790704 363.75 0.784423C404.991 2.36179 446.522 28.956 488.949 100.141C531.319 171.23 568.323 211.062 604.102 231.76C639.859 252.443 674.452 254.051 712.1 248.552C730.673 245.839 749.994 241.392 770.559 236.658L770.56 236.658L770.564 236.657L770.565 236.657C833.361 222.202 907.746 205.079 1007.77 226.532C1074.14 240.766 1104.41 262.088 1114.99 287.99C1120.28 300.932 1120.62 314.958 1118.16 329.7C1115.7 344.438 1110.43 359.926 1104.47 375.809C1102.81 380.217 1101.1 384.655 1099.38 389.117L1099.37 389.152C1088.7 416.872 1077.68 445.493 1076.91 473.411C1076.47 489.601 1079.48 505.538 1088.02 520.907C1096.56 536.279 1110.64 551.112 1132.38 565.065C1202.04 609.761 1280.2 626.158 1349.63 628.488C1419.06 630.817 1479.71 619.078 1514.32 607.534L1514.63 608.483Z" fill="url(#paint0_linear_317_1237)"/>
<defs>
<linearGradient id="paint0_linear_317_1237" x1="124.294" y1="104.244" x2="1545.05" y2="359.493" gradientUnits="userSpaceOnUse">
<stop offset="0.310417" stop-color="#F08676"/>
<stop offset="0.461458" stop-color="#F08676"/>
<stop offset="0.851637" stop-color="#F08676"/>
</linearGradient>
</defs>
</svg>
