<svg width="554" height="175" viewBox="0 0 554 175" fill="none" xmlns="http://www.w3.org/2000/svg">
<path d="M123.906 40.8708C120.367 39.1888 116.858 37.3586 113.221 35.8322C109.166 34.1274 104.879 33.2199 100.501 32.658C96.5142 32.1454 92.5388 32.0428 88.5558 32.4567C80.3353 33.311 72.6502 35.8208 65.5688 40.1C61.5592 42.5225 57.9255 45.4348 54.6677 48.8027C49.8037 53.8299 45.8929 59.5254 43.4058 66.0676C42.0351 69.6785 40.8581 73.4148 40.1101 77.1965C39.2064 81.7757 39.0621 86.465 39.457 91.1581C40.0759 98.4673 42.0351 105.366 45.3993 111.886C48.0723 117.069 51.6605 121.538 55.6435 125.783C63.4159 134.064 60.2834 147.38 49.8721 151.447C43.5425 153.918 37.6154 152.798 32.7249 147.991C21.9073 137.36 14.564 124.625 10.4442 110.056C9.01657 105.006 7.95341 99.8569 7.7142 94.5791C7.57751 91.4922 7.194 88.4015 7.27374 85.3183C7.40663 80.1468 7.96101 75.0133 8.95582 69.9063C10.3303 62.8667 12.5402 56.1309 15.5929 49.6798C18.8432 42.8149 22.9743 36.5005 27.9066 30.6949C34.6158 22.7934 42.5135 16.3803 51.501 11.2695C58.4153 7.33967 65.7663 4.48814 73.4855 2.63141C78.8127 1.34803 84.2158 0.413974 89.7214 0.429162C94.2246 0.440553 98.7696 0.273487 103.223 0.78608C107.993 1.33285 112.746 2.34284 117.39 3.57306C126.81 6.07148 135.445 10.3507 143.426 15.9398C143.635 16.0841 143.813 16.274 144.216 16.6233C137.636 16.7296 132.221 19.0268 128.155 24.0122C124.088 28.9977 122.645 34.6969 123.894 40.8746L123.906 40.8708Z" fill="#2BB4AC"/>
<path d="M93.6817 132.91C68.2571 132.682 47.6243 112.687 47.6737 86.6738C47.7192 61.0024 67.7787 40.6126 93.8868 40.624C119.558 40.6316 140.225 61.086 139.925 87.4522C139.644 112.391 119.414 132.868 93.6817 132.91Z" fill="#82C9BE"/>
<path d="M130.957 27.2776C159.396 44.2159 174.094 83.6704 156.461 118.439C137.647 155.543 93.1843 166.555 60.4315 148.504C63.7615 143.902 65.3866 138.825 64.6424 133.054C66.6965 134.121 68.7014 135.23 70.7631 136.221C75.5663 138.533 80.6201 140.105 85.9093 140.674C89.6987 141.085 93.5526 141.396 97.3382 141.168C107.355 140.561 116.562 137.382 124.821 131.596C134.909 124.526 141.877 115.147 145.738 103.445C148.222 95.9194 148.92 88.1812 147.994 80.3708C146.741 69.7658 142.701 60.2582 135.798 52.0415C134.085 50.0063 132.126 48.1572 130.577 46.0119C126.514 40.3848 126.727 32.6617 130.957 27.2738V27.2776Z" fill="#F18777"/>
<path d="M135.247 23.3288C138.247 21.51 141.341 20.781 144.683 20.9518C150.28 21.2366 154.187 24.4299 157.695 28.3825C162.988 34.3476 167.563 40.7987 171.129 47.9484C174.132 53.9742 176.433 60.2506 177.982 66.808C179.759 74.3184 180.644 81.939 180.234 89.6317C179.98 94.3969 179.277 99.1583 178.503 103.878C177.219 111.7 174.44 119.047 170.863 126.098C166.819 134.079 161.61 141.244 155.322 147.589C146.353 156.641 135.878 163.437 123.928 167.868C117.064 170.416 109.994 172.246 102.65 172.702C98.1546 172.983 93.621 173.408 89.1481 173.105C84.0564 172.763 78.9684 171.897 73.9564 170.872C65.7359 169.194 58.0546 165.966 50.8024 161.778C47.8635 160.081 45.0576 158.144 42.2478 156.109C47.3054 156.371 51.9301 155.346 56.046 152.487C75.7524 163.217 96.2865 165.571 117.569 158.604C136.197 152.506 150.363 140.686 159.924 123.562C169.572 106.281 171.907 87.8661 167.343 68.6837C164.298 55.8879 156.4 37.5712 135.247 23.3212V23.3288Z" fill="#F18777"/>
<path d="M176.581 174.02C170.407 174.301 164.545 169 164.579 162.093C164.613 155.433 169.72 150.118 176.391 150.049C183.34 149.977 188.546 155.133 188.637 162.033C188.724 168.579 183.416 174.202 176.581 174.02Z" fill="#CBE6DB"/>
<path d="M12.1984 0.00768227C18.8507 -0.163182 24.3526 5.68417 24.2121 12.1239C24.0716 18.6699 18.7862 24.0388 12.1719 23.9894C5.53093 23.9401 0.245528 18.7458 0.211356 12.0403C0.173386 4.61722 6.35867 -0.170772 12.1984 0.011483V0.00768227Z" fill="#F18877"/>
<g filter="url(#filter0_d_503_1549)">
<path d="M88.6279 89.943C88.6279 86.3548 88.6431 82.7667 88.6203 79.1785C88.514 75.5334 84.5803 75.9777 84.4132 79.0533C84.3145 84.6842 84.3639 90.3189 84.3601 95.9498C84.3715 105.473 69.8556 105.678 69.7987 95.9232C69.7987 90.3721 69.8252 84.8247 69.7645 79.2735C69.7607 77.8154 68.5912 75.7765 66.8864 76.7447C66.0548 77.2193 65.5612 77.918 65.5688 78.9697C65.5992 84.4791 65.5802 89.9848 65.584 95.4942C65.3068 97.9546 66.7345 102.929 63.2678 103.248C60.6175 103.517 59.9873 100.628 60.2568 98.4444C60.2568 92.187 60.2492 85.9258 60.2568 79.6684C59.5202 69.4051 74.7461 68.2357 74.9967 78.6546C75.0309 84.2855 75.0043 89.9202 75.0157 95.5549C75.0157 97.013 75.665 97.8445 76.8269 97.9508C78.1862 98.0761 79.0785 97.2446 79.0785 95.7941C79.0899 90.2012 79.0747 84.612 79.0861 79.0191C78.8886 69.1241 93.8032 68.6457 93.7918 78.9355C93.8032 85.9827 93.8146 93.0337 93.7918 100.081C94.1981 104.003 88.6165 104.311 88.6241 100.704C88.6127 97.1155 88.6241 93.5274 88.6241 89.9392L88.6279 89.943Z" fill="#CCE6DB"/>
<path d="M114.06 86.9586C114.493 81.0543 111.831 72.8832 120.283 71.1821C126.765 69.7393 132.069 79.957 126.169 81.0657C124.714 81.1454 123.541 80.143 123.408 78.5938C123.488 76.7447 120.978 75.4803 119.832 77.1054C119.573 77.4927 119.376 78.0091 119.376 78.4685C119.349 84.2286 119.349 89.9848 119.376 95.7448C119.186 98.4369 123.427 98.3685 123.37 95.8056C123.515 93.6223 125.147 93.0034 126.583 93.2046C132.05 95.1069 126.097 103.775 121.495 103.122C112.382 102.788 114.125 93.683 114.041 86.9548C114.049 86.9548 114.056 86.9548 114.064 86.9548L114.06 86.9586Z" fill="#CCE6DB"/>
<path d="M110.343 85.3828C109.732 91.2036 112.731 99.8835 105.862 102.746C100.615 104.934 95.565 100.863 95.7093 96.041C95.6751 92.6313 100.869 92.6579 100.957 95.9536C101.101 97.7496 102.84 98.7482 104.135 97.6813C104.621 97.2826 104.951 96.4207 104.959 95.7676C105.016 88.7584 104.974 81.7491 105.023 74.7399C105.027 73.9539 105.24 73.0578 105.661 72.4124C106.967 70.324 110.563 71.653 110.354 74.1172C110.343 77.8724 110.354 81.6276 110.354 85.379C110.354 85.379 110.354 85.379 110.35 85.379L110.343 85.3828Z" fill="#CCE6DB"/>
</g>
<path d="M238.038 78.7904C242.048 71.3904 245.858 64.2804 249.738 57.2004C253.598 50.1504 257.528 43.1204 261.428 36.0904C261.748 36.1204 262.058 36.1404 262.378 36.1704C266.828 58.1104 271.278 80.0604 275.838 102.52C286.818 80.3004 297.578 58.5404 308.578 36.2904C309.238 36.9404 309.938 37.3404 310.228 37.9404C316.268 50.4404 322.248 62.9704 328.278 75.4804C332.188 83.5804 336.178 91.6304 340.418 99.7004C340.078 96.6404 339.738 93.5804 339.378 90.4504C341.888 91.0704 344.148 91.8804 346.468 92.1604C353.728 93.0404 355.788 88.3404 355.908 83.1704C356.098 75.3304 355.988 67.4904 355.998 59.6504C355.998 52.7604 355.998 45.8704 355.998 38.7604H371.918V41.0504C371.918 55.7104 371.988 70.3704 371.878 85.0304C371.848 89.5804 370.808 93.9804 368.078 97.7704C364.588 102.62 359.748 105.29 353.858 105.71C349.698 106.01 345.498 105.77 341.318 105.77C341.308 105.57 341.298 105.37 341.278 105.17C341.008 104.74 340.738 104.31 340.458 103.87H325.608C324.248 100.78 322.868 97.6704 321.498 94.5504H295.208C293.798 97.6504 292.388 100.75 290.998 103.79H261.078C259.278 94.1304 257.488 84.5404 255.608 74.4404C249.618 85.4104 243.858 95.9704 238.098 106.52L237.218 106.55C231.058 95.9104 224.908 85.2704 218.388 74.0204C216.428 84.3304 214.578 94.0104 212.718 103.78H198.638C203.188 81.1604 207.708 58.7004 212.228 36.2504L213.138 36.0304C221.378 50.2004 229.608 64.3704 237.998 78.8004L238.038 78.7904ZM316.538 82.8104C313.768 76.1604 311.108 69.7704 308.298 63.0304C305.388 69.8704 302.668 76.2604 299.888 82.8104H316.538Z" fill="#82C9BE"/>
<path d="M386.94 41.4104H402.52V106.55H386.94V41.4104Z" fill="#82C9BE"/>
<path d="M471.649 42.9543C471.109 48.5443 470.579 53.9944 470.039 59.5344C467.549 57.6944 465.309 55.7843 462.839 54.2643C454.949 49.4143 444.849 50.1544 438.589 57.1244C434.229 61.9844 433.129 67.8243 433.659 74.0643C434.109 79.2843 436.129 83.8044 440.219 87.2844C445.299 91.6144 451.169 92.1244 457.379 90.8744C462.129 89.9144 466.229 87.5743 470.029 84.6343C470.579 84.2143 471.169 83.8444 472.059 83.2344C471.679 89.2344 471.329 94.9243 470.969 100.634C457.399 109.964 437.699 108.364 426.049 95.0844C414.959 82.4444 414.529 61.8943 425.669 48.6443C436.309 35.9943 455.539 32.3043 471.649 42.9543Z" fill="#82C9BE"/>
<path d="M537.409 106.53C536.099 103.49 534.819 100.5 533.419 97.2204C529.149 97.2204 524.789 97.2204 520.429 97.2204C516.069 97.2204 511.659 97.2204 507.119 97.2204C505.709 100.34 504.299 103.44 502.889 106.55H487.059C498.179 84.0504 509.199 61.7604 520.459 38.9604C521.119 39.6404 521.779 40.0704 522.079 40.6804C528.139 53.1304 534.139 65.6004 540.169 78.0604C544.259 86.5204 548.369 94.9804 552.449 103.44C552.909 104.4 553.299 105.39 553.789 106.53H537.409ZM520.179 65.7604C517.249 72.6204 514.529 79.0004 511.789 85.4204H528.349C525.619 78.8504 522.989 72.5204 520.179 65.7604Z" fill="#82C9BE"/>
<path d="M198.648 113.174C201.198 113.174 203.538 113.174 205.868 113.174C210.988 113.174 213.238 115.854 213.538 120.344C213.808 124.324 210.558 127.424 206.108 127.694C205.338 127.744 204.568 127.694 203.648 127.694V138.004H198.638V113.164L198.648 113.174ZM203.668 117.754V122.584H207.788C208.208 121.824 208.608 121.094 209.008 120.364C208.608 119.644 208.278 119.054 207.868 118.314C206.548 118.134 205.208 117.954 203.658 117.754H203.668Z" fill="#82C9BE"/>
<path d="M228.561 112.329H233.621V131.509C235.511 133.179 237.071 133.499 238.831 132.689C240.601 131.869 240.561 130.299 240.561 128.699C240.541 123.309 240.561 117.909 240.561 112.379H245.661C245.661 113.249 245.661 114.159 245.661 115.059C245.621 120.229 245.761 125.409 245.491 130.569C245.261 134.869 242.141 137.739 237.611 137.989C234.151 138.189 229.961 136.419 229.111 132.489C228.751 130.829 228.621 129.099 228.591 127.389C228.521 122.449 228.571 117.509 228.571 112.319L228.561 112.329Z" fill="#82C9BE"/>
<path d="M272.272 124.194C276.482 127.794 277.292 130.764 275.042 134.594C273.822 136.684 271.962 137.854 269.522 137.954C268.042 138.014 266.552 137.994 265.062 138.004C263.652 138.004 262.252 138.004 260.662 138.004V113.154C263.362 113.154 266.122 112.814 268.772 113.224C274.042 114.054 276.182 119.804 272.272 124.194ZM265.292 133.744C267.572 133.184 269.482 132.714 271.182 132.284C271.382 128.034 269.712 126.824 265.292 127.354V133.734V133.744ZM265.292 122.904C266.932 122.434 268.232 122.054 269.532 121.684C269.392 120.294 269.312 119.454 269.202 118.294C267.892 118.054 266.672 117.834 265.292 117.584V122.904Z" fill="#82C9BE"/>
<path d="M291.267 138.004V113.344H295.957V133.404H302.967V138.004H291.267Z" fill="#82C9BE"/>
<path d="M317.967 113.244H322.477V138.004H317.967V113.244Z" fill="#82C9BE"/>
<path d="M358.545 129.603C359.675 130.783 360.695 131.843 361.695 132.893C356.835 139.123 347.145 139.573 341.635 134.703C336.505 130.153 335.795 120.523 341.345 115.333C347.075 109.973 356.115 110.303 361.555 116.363C360.505 117.473 359.455 118.573 358.405 119.683C353.535 115.443 348.205 115.083 344.395 119.253C341.645 122.253 341.615 127.793 344.525 130.553C348.005 133.863 352.575 134.963 358.535 129.613L358.545 129.603Z" fill="#82C9BE"/>
<path d="M376.695 113.244H381.165V138.004H376.695V113.244Z" fill="#82C9BE"/>
<path d="M405.466 138.004H400.406V117.894H396.166V113.204H409.816V117.684H405.466V138.004Z" fill="#82C9BE"/>
<path d="M434.335 113.134H439.425C442.585 121.354 445.745 129.554 448.975 137.954H443.845C443.245 136.404 442.645 134.834 442.005 133.204H431.885C431.205 134.844 430.565 136.404 429.905 138.004H424.815C428.015 129.654 431.165 121.424 434.345 113.134H434.335ZM440.035 128.044C438.975 125.304 437.995 122.764 436.905 119.954C435.785 122.864 434.805 125.424 433.795 128.044H440.035Z" fill="#82C9BE"/>
<path d="M468.535 128.074V138.004H463.975V113.184C467.055 113.184 470.095 112.984 473.105 113.244C475.845 113.474 478.025 115.824 478.455 118.364C479.125 122.334 478.165 124.744 475.245 126.394C474.905 126.584 474.585 126.784 474.085 127.074C475.965 130.644 477.835 134.194 479.825 137.954H474.475C472.745 134.734 470.905 131.304 469.065 127.864L468.545 128.064L468.535 128.074ZM468.655 123.084C470.535 122.484 472.145 122.134 473.545 121.404C473.845 121.244 473.745 119.174 473.305 118.934C471.965 118.194 470.365 117.924 468.655 117.404V123.084Z" fill="#82C9BE"/>
<path d="M494.825 113.234H499.365V138.004H494.825V113.234Z" fill="#82C9BE"/>
<path d="M538.565 138.004H533.485C532.865 136.494 532.195 134.884 531.505 133.194H521.445C520.765 134.764 520.115 136.254 519.405 137.894H514.365C517.555 129.594 520.715 121.394 523.895 113.134H528.965C532.095 121.234 535.265 129.454 538.575 138.004H538.565ZM526.445 119.944C525.265 123.024 524.325 125.484 523.365 127.984H529.545C528.535 125.364 527.605 122.944 526.445 119.944Z" fill="#82C9BE"/>
<defs>
<filter id="filter0_d_503_1549" x="58.5517" y="69.395" width="79.5513" height="43.2912" filterUnits="userSpaceOnUse" color-interpolation-filters="sRGB">
<feFlood flood-opacity="0" result="BackgroundImageFix"/>
<feColorMatrix in="SourceAlpha" type="matrix" values="0 0 0 0 0 0 0 0 0 0 0 0 0 0 0 0 0 0 127 0" result="hardAlpha"/>
<feOffset dx="3.84255" dy="3.84255"/>
<feGaussianBlur stdDeviation="2.74522"/>
<feColorMatrix type="matrix" values="0 0 0 0 0.486275 0 0 0 0 0.486275 0 0 0 0 0.47451 0 0 0 0.75 0"/>
<feBlend mode="normal" in2="BackgroundImageFix" result="effect1_dropShadow_503_1549"/>
<feBlend mode="normal" in="SourceGraphic" in2="effect1_dropShadow_503_1549" result="shape"/>
</filter>
</defs>
</svg>
