<svg width="498" height="459" viewBox="0 0 498 459" fill="none" xmlns="http://www.w3.org/2000/svg">
<path d="M326.644 107.63C317.324 103.2 308.084 98.3798 298.504 94.3598C287.824 89.8698 276.534 87.4797 265.004 85.9997C254.504 84.6497 244.034 84.3797 233.544 85.4697C211.894 87.7197 191.654 94.3297 173.004 105.6C162.444 111.98 152.874 119.65 144.294 128.52C131.484 141.76 121.184 156.76 114.634 173.99C111.024 183.5 107.924 193.34 105.954 203.3C103.574 215.36 103.194 227.71 104.234 240.07C105.864 259.32 111.024 277.49 119.884 294.66C126.924 308.31 136.374 320.08 146.864 331.26C167.334 353.07 159.084 388.14 131.664 398.85C114.994 405.36 99.3838 402.41 86.5038 389.75C58.0138 361.75 38.6738 328.21 27.8238 289.84C24.0638 276.54 21.2638 262.98 20.6338 249.08C20.2738 240.95 19.2638 232.81 19.4738 224.69C19.8238 211.07 21.2838 197.55 23.9038 184.1C27.5238 165.56 33.3438 147.82 41.3838 130.83C49.9438 112.75 60.8238 96.1197 73.8138 80.8297C91.4838 60.0197 112.284 43.1297 135.954 29.6697C154.164 19.3197 173.524 11.8097 193.854 6.91974C207.884 3.53974 222.114 1.07973 236.614 1.11973C248.474 1.14973 260.444 0.709737 272.174 2.05974C284.734 3.49974 297.254 6.15973 309.484 9.39973C334.294 15.9797 357.034 27.2497 378.054 41.9697C378.604 42.3497 379.074 42.8497 380.134 43.7697C362.804 44.0497 348.544 50.0997 337.834 63.2297C327.124 76.3597 323.324 91.3698 326.614 107.64L326.644 107.63Z" fill="#2BB4AC"/>
<path d="M247.044 350.03C180.084 349.43 125.744 296.77 125.874 228.26C125.994 160.65 178.824 106.95 247.584 106.98C315.194 107 369.624 160.87 368.834 230.31C368.094 295.99 314.814 349.92 247.044 350.03Z" fill="#82C9BE"/>
<path d="M345.214 71.8297C420.114 116.44 458.824 220.35 412.384 311.92C362.834 409.64 245.734 438.64 159.474 391.1C168.244 378.98 172.524 365.61 170.564 350.41C175.974 353.22 181.254 356.14 186.684 358.75C199.334 364.84 212.644 368.98 226.574 370.48C236.554 371.56 246.704 372.38 256.674 371.78C283.054 370.18 307.304 361.81 329.054 346.57C355.624 327.95 373.974 303.25 384.144 272.43C390.684 252.61 392.524 232.23 390.084 211.66C386.784 183.73 376.144 158.69 357.964 137.05C353.454 131.69 348.294 126.82 344.214 121.17C333.514 106.35 334.074 86.0098 345.214 71.8198V71.8297Z" fill="#F18777"/>
<path d="M356.514 61.4297C364.414 56.6397 372.564 54.7197 381.364 55.1697C396.104 55.9197 406.394 64.3297 415.634 74.7397C429.574 90.4497 441.624 107.44 451.014 126.27C458.924 142.14 464.984 158.67 469.064 175.94C473.744 195.72 476.074 215.79 474.994 236.05C474.324 248.6 472.474 261.14 470.434 273.57C467.054 294.17 459.734 313.52 450.314 332.09C439.664 353.11 425.944 371.98 409.384 388.69C385.764 412.53 358.174 430.43 326.704 442.1C308.624 448.81 290.004 453.63 270.664 454.83C258.824 455.57 246.884 456.69 235.104 455.89C221.694 454.99 208.294 452.71 195.094 450.01C173.444 445.59 153.214 437.09 134.114 426.06C126.374 421.59 118.984 416.49 111.584 411.13C124.904 411.82 137.084 409.12 147.924 401.59C199.824 429.85 253.904 436.05 309.954 417.7C359.014 401.64 396.324 370.51 421.504 325.41C446.914 279.9 453.064 231.4 441.044 180.88C433.024 147.18 412.224 98.9397 356.514 61.4097V61.4297Z" fill="#F18777"/>
<path d="M465.374 458.3C449.114 459.04 433.674 445.08 433.764 426.89C433.854 409.35 447.304 395.35 464.874 395.17C483.174 394.98 496.884 408.56 497.124 426.73C497.354 443.97 483.374 458.78 465.374 458.3Z" fill="#CBE6DB"/>
<path d="M32.4438 0.00974536C49.9638 -0.440255 64.4538 14.9597 64.0838 31.9197C63.7138 49.1597 49.7937 63.2998 32.3737 63.1698C14.8837 63.0397 0.963749 49.3597 0.873749 31.6997C0.773749 12.1497 17.0638 -0.460245 32.4438 0.0197551V0.00974536Z" fill="#F18877"/>
<g filter="url(#filter0_d_503_1370)">
<path d="M233.734 236.87C233.734 227.42 233.774 217.97 233.714 208.52C233.434 198.92 223.074 200.09 222.634 208.19C222.374 223.02 222.504 237.86 222.494 252.69C222.524 277.77 184.294 278.31 184.144 252.62C184.144 238 184.214 223.39 184.054 208.77C184.044 204.93 180.964 199.56 176.474 202.11C174.284 203.36 172.984 205.2 173.004 207.97C173.084 222.48 173.034 236.98 173.044 251.49C172.314 257.97 176.074 271.07 166.944 271.91C159.964 272.62 158.304 265.01 159.014 259.26C159.014 242.78 158.994 226.29 159.014 209.81C157.074 182.78 197.174 179.7 197.834 207.14C197.924 221.97 197.854 236.81 197.884 251.65C197.884 255.49 199.594 257.68 202.654 257.96C206.234 258.29 208.584 256.1 208.584 252.28C208.614 237.55 208.574 222.83 208.604 208.1C208.084 182.04 247.364 180.78 247.334 207.88C247.364 226.44 247.394 245.01 247.334 263.57C248.404 273.9 233.704 274.71 233.724 265.21C233.694 255.76 233.724 246.31 233.724 236.86L233.734 236.87Z" fill="#CCE6DB"/>
<path d="M300.714 229.01C301.854 213.46 294.844 191.94 317.104 187.46C334.174 183.66 348.144 210.57 332.604 213.49C328.774 213.7 325.684 211.06 325.334 206.98C325.544 202.11 318.934 198.78 315.914 203.06C315.234 204.08 314.714 205.44 314.714 206.65C314.644 221.82 314.644 236.98 314.714 252.15C314.214 259.24 325.384 259.06 325.234 252.31C325.614 246.56 329.914 244.93 333.694 245.46C348.094 250.47 332.414 273.3 320.294 271.58C296.294 270.7 300.884 246.72 300.664 229C300.684 229 300.704 229 300.724 229L300.714 229.01Z" fill="#CCE6DB"/>
<path d="M290.924 224.86C289.314 240.19 297.214 263.05 279.124 270.59C265.304 276.35 252.004 265.63 252.384 252.93C252.294 243.95 265.974 244.02 266.204 252.7C266.584 257.43 271.164 260.06 274.574 257.25C275.854 256.2 276.724 253.93 276.744 252.21C276.894 233.75 276.784 215.29 276.914 196.83C276.924 194.76 277.484 192.4 278.594 190.7C282.034 185.2 291.504 188.7 290.954 195.19C290.924 205.08 290.954 214.97 290.954 224.85C290.954 224.85 290.954 224.85 290.944 224.85L290.924 224.86Z" fill="#CCE6DB"/>
</g>
<defs>
<filter id="filter0_d_503_1370" x="154.523" y="182.753" width="209.512" height="114.015" filterUnits="userSpaceOnUse" color-interpolation-filters="sRGB">
<feFlood flood-opacity="0" result="BackgroundImageFix"/>
<feColorMatrix in="SourceAlpha" type="matrix" values="0 0 0 0 0 0 0 0 0 0 0 0 0 0 0 0 0 0 127 0" result="hardAlpha"/>
<feOffset dx="10.12" dy="10.12"/>
<feGaussianBlur stdDeviation="7.23"/>
<feColorMatrix type="matrix" values="0 0 0 0 0.486275 0 0 0 0 0.486275 0 0 0 0 0.47451 0 0 0 0.75 0"/>
<feBlend mode="normal" in2="BackgroundImageFix" result="effect1_dropShadow_503_1370"/>
<feBlend mode="normal" in="SourceGraphic" in2="effect1_dropShadow_503_1370" result="shape"/>
</filter>
</defs>
</svg>
