<?xml version="1.0" encoding="UTF-8" standalone="no"?>
<svg
   xmlns:dc="http://purl.org/dc/elements/1.1/"
   xmlns:cc="http://creativecommons.org/ns#"
   xmlns:rdf="http://www.w3.org/1999/02/22-rdf-syntax-ns#"
   xmlns:svg="http://www.w3.org/2000/svg"
   xmlns="http://www.w3.org/2000/svg"
   xmlns:sodipodi="http://sodipodi.sourceforge.net/DTD/sodipodi-0.dtd"
   xmlns:inkscape="http://www.inkscape.org/namespaces/inkscape"
   viewBox="0 0 100 54"
   height="54"
   width="100"
   xml:space="preserve"
   id="svg2"
   version="1.1"
   inkscape:version="0.91 r13725"
   sodipodi:docname="Auteco.svg"><title
     id="title4155">Auteco logo</title><sodipodi:namedview
     pagecolor="#ffffff"
     bordercolor="#666666"
     borderopacity="1"
     objecttolerance="10"
     gridtolerance="10"
     guidetolerance="10"
     inkscape:pageopacity="0"
     inkscape:pageshadow="2"
     inkscape:window-width="1366"
     inkscape:window-height="705"
     id="namedview27"
     showgrid="false"
     inkscape:showpageshadow="false"
     inkscape:zoom="1"
     inkscape:cx="53.90395"
     inkscape:cy="26.079143"
     inkscape:window-x="-8"
     inkscape:window-y="-8"
     inkscape:window-maximized="1"
     inkscape:current-layer="svg2" /><metadata
     id="metadata8"><rdf:RDF><cc:Work
         rdf:about=""><dc:format>image/svg+xml</dc:format><dc:type
           rdf:resource="http://purl.org/dc/dcmitype/StillImage" /><dc:title>Auteco logo</dc:title><cc:license
           rdf:resource="http://scripts.sil.org/OFL" /></cc:Work><cc:License
         rdf:about="http://scripts.sil.org/OFL"><cc:permits
           rdf:resource="http://scripts.sil.org/pub/OFL/Reproduction" /><cc:permits
           rdf:resource="http://scripts.sil.org/pub/OFL/Distribution" /><cc:permits
           rdf:resource="http://scripts.sil.org/pub/OFL/Embedding" /><cc:permits
           rdf:resource="http://scripts.sil.org/pub/OFL/DerivativeWorks" /><cc:requires
           rdf:resource="http://scripts.sil.org/pub/OFL/Notice" /><cc:requires
           rdf:resource="http://scripts.sil.org/pub/OFL/Attribution" /><cc:requires
           rdf:resource="http://scripts.sil.org/pub/OFL/ShareAlike" /><cc:requires
           rdf:resource="http://scripts.sil.org/pub/OFL/DerivativeRenaming" /><cc:requires
           rdf:resource="http://scripts.sil.org/pub/OFL/BundlingWhenSelling" /></cc:License></rdf:RDF></metadata><defs
     id="defs6" /><g
     transform="matrix(0.7078575,0,0,-0.74634347,0.71197986,53.39086)"
     id="g10"><g
       transform="scale(0.1,0.1)"
       id="g12"><path
         id="path16"
         style="fill:#18468b;fill-opacity:1;fill-rule:evenodd;stroke:none"
         d="m 1285.75,253.809 c 70.07,0 116.88,-56.797 104.51,-126.875 C 1377.89,56.8555 1311.09,0 1241,0 c -70.07,0 -116.87,56.8555 -104.5,126.934 12.34,70.078 79.15,126.875 149.25,126.875 M 1250.14,51.9727 c 41.4,0 80.85,33.5664 88.13,74.9613 7.3,41.347 -20.33,74.91 -61.71,74.91 -41.34,0 -80.82,-33.563 -88.12,-74.91 -7.29,-41.3949 20.34,-74.9613 61.7,-74.9613"
         inkscape:connector-curvature="0" /><path
         id="path18"
         style="fill:#18468b;fill-opacity:1;fill-rule:nonzero;stroke:none"
         d="M 151.27,253.809 C 81.168,253.809 14.332,197.012 1.97656,126.934 -10.3711,56.8555 36.4219,0 106.5,0 c 26.828,0 53.168,8.35938 76.191,22.5898 l -3.57,-21.62105 54.676,0 8.762,51.10155 13.211,74.8637 c 12.32,70.039 -34.43,126.875 -104.5,126.875 M 115.648,51.9727 c -41.3511,0 -68.9878,33.5664 -61.7066,74.9613 7.2969,41.347 46.7656,74.91 88.1486,74.91 41.355,0 68.988,-33.563 61.687,-74.91 -7.289,-41.3949 -46.726,-74.9613 -88.129,-74.9613"
         inkscape:connector-curvature="0" /><path
         id="path20"
         style="fill:#18468b;fill-opacity:1;fill-rule:evenodd;stroke:none"
         d="M 514.488,254.695 456.246,242.344 432.895,110.539 c -6.477,-36.9062 -15.528,-62.0429 -59.946,-62.0429 -44.426,0 -44.562,25.1367 -38.082,62.0429 L 360.348,254.695 302.109,242.344 278.086,106.328 C 267.406,45.6641 286.289,0.96875 364.574,0.96875 c 78.321,0 112.922,44.69535 123.653,105.35925 l 26.261,148.367"
         inkscape:connector-curvature="0" /><path
         id="path22"
         style="fill:#18468b;fill-opacity:1;fill-rule:evenodd;stroke:none"
         d="m 597.945,253.301 10.801,61.289 -56.91,-12.305 -35.59,-202.3944 c -3.844,-21.7773 -5.601,-37.0898 -5.019,-45.4179 0.765,-7.8907 2.25,-14.5899 4.515,-19.8243 2.262,-5.0586 5.446,-9.5703 9.52,-13.6132 12.883,-13.39067 30.734,-20.01176 53.301,-20.01176 19.8,0 39.039,4.23828 57.691,12.66796 l 0.039,-0.1055 8.91,4.4297 3.36,20.0391 2.359,13.4023 3.383,18.8555 -11.629,-5.7617 -0.055,-0.1094 c -18.285,-9.207 -34.808,-13.7383 -49.547,-13.7383 -20.406,0 -28.812,11.6211 -24.168,37.9688 l 20.219,114.6681 76.359,0 2.192,12.949 2.656,15.09 0.043,0 3.82,21.922 -76.25,0"
         inkscape:connector-curvature="0" /><path
         id="path24"
         style="fill:#18468b;fill-opacity:1;fill-rule:evenodd;stroke:none"
         d="m 877.313,30.5078 9.562,54.8906 c 0,0 -5.828,-3.4843 -6.109,-3.6796 -29.34,-19.129 -59.321,-28.6719 -89.989,-28.6719 -21.812,0 -38.172,6.5703 -49.484,19.4726 -10.527,12.2461 -14.961,28.4965 -13.078,49.0825 l 169.43,0 1.558,9.472 c 6.692,38.145 2.473,69.016 -13.156,92.18 -15.66,23.191 -40.152,34.746 -73.031,34.746 -34.11,0 -64.149,-11.848 -89.864,-35.715 -25.656,-23.691 -41.679,-54.308 -48.254,-91.738 -4.39,-24.922 -3.312,-47.0704 3.387,-66.297 6.844,-19.0547 17.731,-34.2617 32.66,-45.5859 15.157,-11.46879 36.36,-17.12113 63.41,-17.12113 19.598,0 37.34,1.58203 52.692,6.43359 30.707,9.71874 50.266,22.53124 50.266,22.53124 m -27.938,126.5822 -113.379,0 c 6.402,16.504 15.137,29.121 26.109,38.015 11.973,9.641 26.028,14.532 42.383,14.532 16.387,-0.039 28.149,-4.891 35.86,-14.422 7.175,-8.887 10.304,-21.496 9.027,-38.125"
         inkscape:connector-curvature="0" /><path
         id="path26"
         style="fill:#18468b;fill-opacity:1;fill-rule:evenodd;stroke:none"
         d="m 1134.52,227.684 2.2,12.445 -7.41,3.355 c -11.18,5.11 -21.03,8.711 -29.48,10.754 -9.7,2.528 -20.87,3.77 -33.48,3.77 -36.49,0 -68.299,-11.953 -95.092,-35.957 -26.766,-23.985 -43.508,-55.481 -50.305,-94.102 -6.765,-38.281 -0.781,-69.2185 18.281,-92.3552 19.227,-23.1329 48.305,-34.57036 86.786,-34.57036 22.98,0 47.26,4.44531 72.73,13.24216 l 0.02,-0.0273 3.54,1.1719 1.88,10.625 -0.05,0 5.68,32.2656 0.09,0 2.16,12.168 -8.75,-3.5665 c -23.86,-9.6289 -44.25,-14.3828 -61.14,-14.3828 -24.69,0 -42.649,7.0118 -54.5,20.8008 -11.61,13.711 -15.477,32.3047 -11.278,56.1917 3.981,22.676 13.891,41.035 29.548,55.34 15.65,14.414 33.63,21.66 54.19,21.66 18.51,0 37.59,-6.473 57.29,-19.754 l 0.34,-0.254 c 1.2,-0.813 2.41,-1.652 3.62,-2.52 0.04,-0.027 0.08,-0.039 0.12,-0.066 l 4.67,-3.242 2.72,15.476 5.55,31.532 0.07,0"
         inkscape:connector-curvature="0" /><path
         id="path28"
         style="fill:#ed1c24;fill-opacity:1;fill-rule:nonzero;stroke:none"
         d="m 1051.17,475.551 c 0,44.301 -65.268,80.91 -148.748,80.91 -82.652,0 -147.918,-36.609 -147.918,-80.91 0,-44.293 65.266,-80.953 147.918,-80.953 83.48,0 148.748,36.66 148.748,80.953"
         inkscape:connector-curvature="0" /><path
         id="path30"
         style="fill:#18468b;fill-opacity:1;fill-rule:nonzero;stroke:none"
         d="m 1007.39,369.176 294.89,0 -178.88,97.859 c -5.4,-42.183 -50.42,-78.699 -116.01,-97.859"
         inkscape:connector-curvature="0" /><path
         id="path32"
         style="fill:#18468b;fill-opacity:1;fill-rule:nonzero;stroke:none"
         d="m 681.871,468.902 0.133,0.047 c -0.211,2.192 -0.371,4.391 -0.371,6.602 0,63.437 89.828,116.32 206.117,120.39 L 696.02,700.84 89.7227,369.172 l 701.6993,0 c 0,0 -103.992,34.629 -109.551,99.73"
         inkscape:connector-curvature="0" /></g></g></svg>